<svg width="289" height="243" viewBox="0 0 289 243" fill="none" xmlns="http://www.w3.org/2000/svg">
<path fill-rule="evenodd" clip-rule="evenodd" d="M0 0C96.1667 0 192.333 0 288.5 0C288.5 80.8333 288.5 161.667 288.5 242.5C192.333 242.5 96.1667 242.5 0 242.5C0 161.667 0 80.8333 0 0Z" fill="#FEFEFE"/>
<path fill-rule="evenodd" clip-rule="evenodd" d="M19.5 209.5C19.5 149.833 19.5 90.167 19.5 30.5C22.144 19.6864 28.81 12.5197 39.5 9.00003C108.5 8.33333 177.5 8.33333 246.5 9.00003C258.003 10.8339 265.503 17.3339 269 28.5C269.667 90.5 269.667 152.5 269 214.5C266.14 224.026 259.974 230.193 250.5 233C179.5 233.667 108.5 233.667 37.5 233C26.452 229.109 20.452 221.276 19.5 209.5Z" fill="#020202"/>
<path fill-rule="evenodd" clip-rule="evenodd" d="M175.5 34.5C164.779 33.8581 154.446 34.525 144.5 36.5C143.596 35.791 143.263 34.791 143.5 33.5C154.346 33.1722 165.013 33.5056 175.5 34.5Z" fill="#7B7B7B"/>
<path fill-rule="evenodd" clip-rule="evenodd" d="M44.5 34.5C46.924 34.192 49.257 34.526 51.5 35.5C61.137 50.303 70.971 64.97 81 79.5C82.009 81.025 82.509 82.692 82.5 84.5C69.92 84.822 57.42 84.489 45 83.5C44.5 67.17 44.333 50.837 44.5 34.5Z" fill="#FAFAFA"/>
<path fill-rule="evenodd" clip-rule="evenodd" d="M81.5 33.5C91.839 33.3335 102.172 33.5002 112.5 34C123.696 50.364 134.696 66.864 145.5 83.5C134.849 84.666 124.182 84.832 113.5 84C103.457 68.747 93.291 53.58 83 38.5C81.991 36.975 81.491 35.308 81.5 33.5Z" fill="#F8F8F8"/>
<path fill-rule="evenodd" clip-rule="evenodd" d="M175.5 34.5C185.644 49.434 195.81 64.434 206 79.5C207.009 81.025 207.509 82.692 207.5 84.5C197.161 84.666 186.828 84.5 176.5 84C165.699 68.224 155.033 52.391 144.5 36.5C154.446 34.525 164.779 33.8581 175.5 34.5Z" fill="#FAFAFA"/>
<path fill-rule="evenodd" clip-rule="evenodd" d="M206.5 33.5C219.167 33.5 231.833 33.5 244.5 33.5C244.5 50.5 244.5 67.5 244.5 84.5C242.208 84.756 240.041 84.423 238 83.5C228.248 68.328 218.248 53.328 208 38.5C206.991 36.975 206.491 35.308 206.5 33.5Z" fill="#F7F7F7"/>
<path fill-rule="evenodd" clip-rule="evenodd" d="M45.5 108.5C111.833 108.5 178.167 108.5 244.5 108.5C244.5 142.167 244.5 175.833 244.5 209.5C178.166 209.667 111.832 209.5 45.5 209C44.17 175.5 44.17 142 45.5 108.5Z" fill="#FCFCFC"/>
<path fill-rule="evenodd" clip-rule="evenodd" d="M119.5 121.5C142.473 133.988 165.473 146.488 188.5 159C165.587 171.373 142.753 183.873 120 196.5C119.5 171.502 119.333 146.502 119.5 121.5Z" fill="#020202"/>
</svg>
